<svg width="241" height="119" viewBox="0 0 241 119" fill="none" xmlns="http://www.w3.org/2000/svg">
<g clip-path="url(#clip0_164_29)">
<path d="M106.894 111.915C133.013 111.194 162.124 108.414 190.724 100.148C199.605 97.5821 208.386 94.5238 216.565 89.4999C220.25 87.2363 223.863 84.5952 227.086 81.4803C229.435 79.2091 231.479 76.1508 232.984 72.9702C236.583 65.3557 235.573 57.4859 230.074 51.8003C226.847 48.4653 223.12 45.6561 219.309 43.3711C208.209 36.7134 196.455 32.1801 184.443 28.6235C174.499 25.6798 164.36 24.5091 154.179 23.728C152.98 23.6363 151.673 23.7235 150.629 23.1518C149.795 22.6964 148.685 21.2642 148.776 20.4466C148.908 19.285 149.871 17.9293 150.778 17.3256C151.627 16.7616 152.867 17.0168 153.937 17.0046C170.497 16.8074 186.483 20.818 202.036 27.3213C209.623 30.4912 217.064 34.2985 224.312 38.4787C228.121 40.6765 231.71 43.8633 234.804 47.3755C241.342 54.7913 242.667 64.8314 238.963 74.7049C237.033 79.8495 234.092 84.0343 230.483 87.5649C224.122 93.7871 216.799 97.7625 209.18 101.041C194.451 107.378 179.199 110.988 163.783 113.647C145.437 116.809 126.995 118.572 108.463 118.928C86.2672 119.357 64.209 117.983 42.5119 111.758C33.8602 109.274 25.5468 105.663 17.8599 100.133C12.8573 96.5352 8.26983 92.3183 4.77795 86.5806C-0.878734 77.2895 -1.45107 67.4175 2.7339 57.1298C5.08613 51.3509 8.56043 46.6037 12.4548 42.2905C22.733 30.9161 34.8388 23.2833 47.6654 17.2262C64.3902 9.32436 81.8257 4.94547 99.5882 2.33954C122.35 -0.998497 145.127 -0.59194 167.867 2.46487C187.501 5.10443 206.858 9.48331 225.433 17.9996C227.81 19.0893 230.107 20.4512 232.414 21.7564C234.028 22.6704 235.073 24.0903 234.381 26.415C233.864 28.1497 232.303 28.6663 230.235 27.5277C218.538 21.087 206.088 17.8422 193.624 14.66C179.025 10.9338 164.247 8.96823 149.37 7.83416C122.938 5.81666 96.8359 8.34464 71.0871 15.8812C57.2102 19.9437 43.8829 25.8311 31.4501 34.4712C25.0185 38.9418 18.9694 44.0757 13.8938 50.6906C11.9844 53.1774 10.1906 55.8887 8.75539 58.7958C4.28363 67.8653 4.92639 76.7759 10.9818 84.3018C14.036 88.0968 17.6423 91.4043 21.3744 94.1921C29.6953 100.408 38.9923 103.662 48.4906 106.031C66.7084 110.575 85.1615 111.967 106.894 111.915Z" fill="#FDC11C"/>
</g>
<defs>
<clipPath id="clip0_164_29">
<rect width="241" height="119" fill="white"/>
</clipPath>
</defs>
</svg>
